<?xml version="1.0" standalone="no"?><!DOCTYPE svg PUBLIC "-//W3C//DTD SVG 1.1//EN" "http://www.w3.org/Graphics/SVG/1.1/DTD/svg11.dtd"><svg t="1552121290117" class="icon" xmlns="http://www.w3.org/2000/svg" p-id="49101" xmlns:xlink="http://www.w3.org/1999/xlink" width="1024" height="1024" ><defs><style type="text/css"/></defs><path transform="rotate(-179.765869140625 511.6800842285156,513.31689453125) "  d="m939.51733,411.554492l-272.6383,0c105.59934,-390.39756 -74.87953,-410.23744 -74.87953,-410.23744c-73.59954,0 -58.23964,59.51963 -63.9996,69.75956c0,191.9988 -202.87873,340.47788 -202.87873,340.47788l0,541.43661c0,53.11967 74.87953,72.31955 101.75936,72.31955l409.59744,0c38.39976,0 69.75957,-101.11937 69.75957,-101.11937c101.11936,-344.95784 101.11936,-447.9972 101.11936,-447.9972a63.9996,63.9996 0 0 0 -68.47957,-63.9996l0.64,-0.63999zm-725.75547,0l-163.83897,0a33.27979,33.27979 0 0 0 -33.91979,33.27979l33.91979,545.91659a33.91979,33.91979 0 0 0 34.55978,34.55978l141.43912,0c29.43981,0 29.43981,-23.03986 29.43981,-23.03986l0,-549.11656a40.31975,40.31975 0 0 0 -41.59974,-41.59974z" p-id="49101"></path></svg>
